<?xml version="1.0" encoding="UTF-8"?>
<svg version="1.1" xmlns="http://www.w3.org/2000/svg" width="640" height="516">
<path d="M0 0 C3.39225602 1.03736401 4.12364484 2.20454528 6 5.30859375 C6.68116205 6.67777969 7.34712006 8.05460461 8 9.4375 C8.34885254 10.1596167 8.69770508 10.8817334 9.05712891 11.62573242 C21.56805642 37.91388749 21.58828978 66.74144809 12 94 C10.50647642 98.11126308 8.8978123 102.13043792 7.00390625 106.07421875 C0.12267277 120.55961686 -3.66482205 138.3161118 1 154 C1.26941406 154.98742187 1.53882813 155.97484375 1.81640625 156.9921875 C5.0208848 167.74529125 9.45474777 173.70058438 19.12109375 179.4609375 C32.12001165 186.41015548 45.97409188 188.15156432 60.3125 184.375 C68.96935741 181.60363049 75.79073378 177.58558538 82 171 C82.99 170.67 83.98 170.34 85 170 C86.0688404 168.2946465 86.0688404 168.2946465 87 166 C87.53496094 164.9275 88.06992187 163.855 88.62109375 162.75 C92.41686126 154.97464806 95.3280586 147.55078603 97 139 C100.65684643 140.21894881 100.94316328 141.11009784 102.8125 144.375 C103.60140625 145.74398437 103.60140625 145.74398437 104.40625 147.140625 C106.40014709 150.71791096 108.3705412 154.30651526 110.31640625 157.91015625 C112.26148132 161.47988798 114.25239206 165.02199253 116.25 168.5625 C117.0222072 169.93485544 117.79434099 171.3072522 118.56640625 172.6796875 C119.80294839 174.87697809 121.0414276 177.07309271 122.28466797 179.26660156 C127.61160585 188.66895582 132.78161739 198.03450211 137 208 C137.28472168 208.66435059 137.56944336 209.32870117 137.86279297 210.01318359 C142.57265034 221.11014066 145.88028985 232.13082756 148 244 C148.19335938 245.06089844 148.38671875 246.12179687 148.5859375 247.21484375 C151.0126028 269.39822748 148.26309284 290.08137613 141 311 C140.70480469 311.87785156 140.40960938 312.75570313 140.10546875 313.66015625 C135.53974661 326.14813599 128.01111442 337.49141585 120 348 C119.34 348.99 118.68 349.98 118 351 C117.34 351 116.68 351 116 351 C115.62875 351.8353125 115.62875 351.8353125 115.25 352.6875 C111.86802298 358.94415748 105.86915841 365.71028053 99 368 C98.67 368.99 98.34 369.98 98 371 C95.71736968 372.71123641 93.4586903 374.27710231 91.0625 375.8125 C90.37373779 376.25972412 89.68497559 376.70694824 88.9753418 377.16772461 C87.6002311 378.05682007 86.22242837 378.94176756 84.84179688 379.82226562 C83.37967546 380.75721707 81.92977149 381.71126988 80.484375 382.671875 C74.8480607 386.28073811 68.82608665 389.03655916 62.75 391.8125 C61.45316284 392.40913452 61.45316284 392.40913452 60.13012695 393.01782227 C55.75249917 394.97450529 51.8266014 396.51891718 47 397 C48.37398276 393.79634171 49.82413781 392.12430521 52.5625 390 C64.62040585 379.64592867 73.77820546 363.06433561 75 347 C76.15098688 326.95281113 71.61035568 310.46603238 60 294 C58.37897032 292.28891311 56.70496537 290.62746694 55 289 C54.2575 288.17435547 54.2575 288.17435547 53.5 287.33203125 C48.48793252 281.90602069 42.77276542 277.94304733 36.71850586 273.79052734 C29.57122024 268.82953436 23.0834734 263.24885939 16.62744141 257.43017578 C14.98082353 255.98314795 13.28579056 254.61525108 11.57421875 253.24609375 C10.72472656 252.50488281 9.87523437 251.76367188 9 251 C9 250.34 9 249.68 9 249 C8.34 249 7.68 249 7 249 C5.58293498 247.45111498 4.24190504 245.83238466 2.9375 244.1875 C1.7309375 242.67349609 1.7309375 242.67349609 0.5 241.12890625 C0.08492187 240.60570801 -0.33015625 240.08250977 -0.7578125 239.54345703 C-1.91834081 238.10146411 -3.11423716 236.68813632 -4.3125 235.27734375 C-18.03631655 219.09944195 -27.98262271 199.59306157 -33 179 C-39.99635544 186.89605597 -46.49392102 194.80202531 -52.2578125 203.6484375 C-52.83273437 204.42445313 -53.40765625 205.20046875 -54 206 C-54.66 206 -55.32 206 -56 206 C-56.2578125 206.70640625 -56.515625 207.4128125 -56.78125 208.140625 C-58.10052611 211.23584972 -59.70220331 213.90594458 -61.5 216.75 C-62.22120282 217.90813836 -62.94119583 219.06703074 -63.66015625 220.2265625 C-64.04059082 220.83918945 -64.42102539 221.45181641 -64.81298828 222.08300781 C-75.19219658 238.8451517 -84.58976466 255.93862232 -90 275 C-90.23332031 275.81855469 -90.46664062 276.63710938 -90.70703125 277.48046875 C-94.94453389 295.19262008 -93.87991911 315.81072034 -88 333 C-87.69835937 333.90032959 -87.69835937 333.90032959 -87.390625 334.81884766 C-80.40313893 355.43091595 -68.60629814 373.48385692 -51.453125 387.01953125 C-49.49673343 388.59897476 -47.72460549 390.17766687 -46 392 C-52.13037621 394.04345874 -59.078858 388.96543956 -64.6328125 386.234375 C-78.7349248 379.09720615 -90.65645015 369.94022363 -102 359 C-102.73605469 358.31550781 -103.47210938 357.63101562 -104.23046875 356.92578125 C-107.46256295 353.85362573 -109.79113434 351.43250743 -111 347 C-111.66 347 -112.32 347 -113 347 C-114.68339893 344.61417562 -116.23322253 342.23942957 -117.75 339.75 C-118.19883545 339.0192627 -118.6476709 338.28852539 -119.11010742 337.53564453 C-139.4458498 304.04708554 -144.1729108 266.01899642 -136 228 C-127.86657266 195.31083947 -108.19655483 164.61803984 -88.35107422 137.83105469 C-86.12314501 134.81163491 -83.92731159 131.76904935 -81.72900391 128.72802734 C-80.55514329 127.10433079 -79.37911389 125.48219947 -78.20068359 123.86181641 C-77.66910645 123.12882324 -77.1375293 122.39583008 -76.58984375 121.640625 C-76.11409912 120.98610352 -75.63835449 120.33158203 -75.14819336 119.65722656 C-73.93803054 117.99420916 -73.93803054 117.99420916 -73 116 C-72.34 116 -71.68 116 -71 116 C-70.80019531 115.33613281 -70.60039062 114.67226562 -70.39453125 113.98828125 C-68.45627156 109.83486762 -65.63778126 106.66824249 -62.6875 103.1875 C-58.70198357 98.47077897 -55.11437469 93.83976193 -52.05395508 88.4621582 C-51.7061499 87.979646 -51.35834473 87.49713379 -51 87 C-50.34 87 -49.68 87 -49 87 C-48.74347656 86.27167969 -48.48695313 85.54335937 -48.22265625 84.79296875 C-46.94394912 81.87196045 -45.44407519 79.77987534 -43.4375 77.3125 C-40.97527569 74.31223679 -40.97527569 74.31223679 -39 71 C-38.34 71 -37.68 71 -37 71 C-36.72164307 70.41532959 -36.44328613 69.83065918 -36.15649414 69.22827148 C-35.06414414 67.12358953 -33.87341144 65.27447242 -32.49609375 63.34765625 C-32.00705566 62.66002197 -31.51801758 61.9723877 -31.01416016 61.26391602 C-30.4938623 60.53744873 -29.97356445 59.81098145 -29.4375 59.0625 C-28.34989385 57.53151034 -27.26265772 56.00025776 -26.17578125 54.46875 C-25.63775879 53.71207031 -25.09973633 52.95539063 -24.54541016 52.17578125 C-7.36430742 28.16053618 -7.36430742 28.16053618 0 0 Z " fill="#F6FDFB" transform="translate(314,57)"/>
<path d="M0 0 C2.67551948 2.67551948 2.38071283 4.24629845 2.640625 7.9921875 C2.73843262 9.24136963 2.83624023 10.49055176 2.93701172 11.77758789 C2.98726501 12.4451712 3.03751831 13.11275452 3.08929443 13.80056763 C5.05777234 39.21023067 10.08867766 63.32322235 21.32177734 86.3190918 C22.88533033 89.52547545 24.22397542 92.51938603 25 96 C25.66 96 26.32 96 27 96 C28.296875 97.94140625 28.296875 97.94140625 29.75 100.5625 C31.72900179 103.99894399 33.73443086 107.04030995 36.375 110 C39 113 39 113 39 115 C39.556875 115.185625 40.11375 115.37125 40.6875 115.5625 C43.11148276 117.06930009 44.04443262 118.27328305 45.64453125 120.58984375 C46.08772705 121.22656006 46.53092285 121.86327637 46.98754883 122.51928711 C47.32165771 123.00792236 47.6557666 123.49655762 48 124 C44.417094 124.14533755 40.83494583 124.23407931 37.25 124.3125 C36.23421875 124.35439453 35.2184375 124.39628906 34.171875 124.43945312 C26.64388339 124.56326878 26.64388339 124.56326878 23.56640625 121.87109375 C23.04949219 120.92363281 22.53257812 119.97617187 22 119 C20.95392578 117.53820312 20.95392578 117.53820312 19.88671875 116.046875 C7.91461934 98.09935831 1.16184643 77.44250002 -1 56 C-1.16628906 54.39705078 -1.16628906 54.39705078 -1.3359375 52.76171875 C-2.5452631 38.8544743 -2.30023619 24.80368713 -1.5625 10.875 C-1.50376709 9.74723145 -1.50376709 9.74723145 -1.44384766 8.59667969 C-1.2578726 5.5255974 -0.9779566 2.93386981 0 0 Z " fill="#F5FCFB" transform="translate(281,336)"/>
</svg>
